<svg width="235" height="24" viewBox="0 0 235 24" fill="none" xmlns="http://www.w3.org/2000/svg">
<path d="M0.768555 0.680724H5.36423L13.5988 8.94426L21.8333 0.680724H26.429V23.3402H21.8333V7.04509L13.5988 14.9752L5.36423 7.04509V23.3402H0.768555V0.680724Z" fill="#0A0A0A"/>
<path d="M32.8803 0.680724H52.1764V4.71101H37.476V9.2342H50.4947V13.018H37.476V19.3244H52.4808V23.3402H32.8803V0.680724Z" fill="#0A0A0A"/>
<path d="M64.4122 4.71101H56.0472V0.680724H77.3728V4.71101H69.0078V23.3402H64.4122V4.71101Z" fill="#0A0A0A"/>
<path d="M90.0146 0.680724H94.8857L105.846 23.3402H101.018L99.2059 19.5274H85.9698L84.2156 23.3402H79.3735L90.0146 0.680724ZM97.3938 15.7435L92.4936 5.45038L87.724 15.7435H97.3938Z" fill="#0A0A0A"/>
<path d="M109.369 0.680724H129.636V4.71101H113.964V10.6405H127.273V14.4243H113.964V23.3402H109.369V0.680724Z" fill="#0A0A0A"/>
<path d="M134.072 0.680724H153.368V4.71101H138.668V9.2342H151.687V13.018H138.668V19.3244H153.673V23.3402H134.072V0.680724Z" fill="#0A0A0A"/>
<path d="M165.604 4.71101H157.239V0.680724H178.565V4.71101H170.2V23.3402H165.604V4.71101Z" fill="#0A0A0A"/>
<path d="M182.102 11.8727C182.102 10.2587 182.407 8.75579 183.015 7.36404C183.624 5.96262 184.504 4.74967 185.654 3.72518C186.814 2.69103 188.225 1.87918 189.887 1.28962C191.559 0.700054 193.449 0.405273 195.556 0.405273C197.402 0.405273 199.093 0.59374 200.63 0.970673C202.176 1.33794 203.611 1.90334 204.936 2.66687L202.819 6.14625C202.423 5.8853 201.964 5.65334 201.442 5.45038C200.929 5.24741 200.378 5.07828 199.789 4.94297C199.209 4.79799 198.605 4.68685 197.977 4.60953C197.358 4.53221 196.744 4.49355 196.136 4.49355C194.667 4.49355 193.357 4.67718 192.207 5.04445C191.057 5.40205 190.085 5.90946 189.293 6.56668C188.51 7.21423 187.911 7.99226 187.495 8.90076C187.089 9.7996 186.886 10.7903 186.886 11.8727C186.886 12.9939 187.099 14.0232 187.524 14.9607C187.949 15.8982 188.563 16.71 189.365 17.3963C190.177 18.0728 191.163 18.6044 192.323 18.991C193.492 19.3679 194.811 19.5564 196.281 19.5564C196.947 19.5564 197.609 19.508 198.267 19.4114C198.924 19.3147 199.557 19.1843 200.166 19.02C200.784 18.846 201.379 18.643 201.949 18.4111C202.519 18.1694 203.051 17.9085 203.544 17.6282L205.66 21.1076C204.423 21.9001 202.993 22.5235 201.369 22.9778C199.745 23.4223 198.02 23.6446 196.194 23.6446C193.864 23.6446 191.82 23.345 190.061 22.7458C188.302 22.1369 186.833 21.3057 185.654 20.2522C184.475 19.1891 183.586 17.9423 182.986 16.5119C182.397 15.0718 182.102 13.5254 182.102 11.8727Z" fill="#0A0A0A"/>
<path d="M210.72 0.680724H215.316V6.59567H229.407V0.680724H234.017V23.3402H229.407V10.5245H215.316V23.3402H210.72V0.680724Z" fill="#0A0A0A"/>
</svg>
